<?xml version="1.0" encoding="UTF-8"?>
<svg id="Laag_1" xmlns="http://www.w3.org/2000/svg" version="1.1" viewBox="0 0 645.5 245.5">
  <!-- Generator: Adobe Illustrator 29.0.0, SVG Export Plug-In . SVG Version: 2.1.0 Build 186)  -->
  <defs>
    <style>
      .st0 {
        fill: #ea0029;
      }

      .st0, .st1 {
        fill-rule: evenodd;
      }

      .st1, .st2 {
        fill: #fff;
      }
    </style>
  </defs>
  <g>
    <polygon class="st0" points="53.6 161.7 86.6 141.6 86.6 103.3 53.5 83.3 20.5 103.3 20.5 141.6 53.5 161.7 53.6 161.7"/>
    <polygon class="st0" points="124.9 89.5 158 69.4 158 31 124.9 11 91.9 31 91.9 69.4 124.9 89.5 124.9 89.5"/>
    <polygon class="st0" points="124.9 234 158 213.9 158 175.6 124.9 155.5 91.9 175.6 91.9 213.9 124.9 234 124.9 234"/>
  </g>
  <path class="st1" d="M163.8,130.4v-16.4c.2,0,4.8,0,5,0,8.2,0,8.2,16.4,0,16.4h-5ZM150,141.6h13.8c7.6,0,13.5-.4,18.5-3.8,5.1-3.5,7.9-9,7.9-15.3,0-7.3-3.7-13.4-10.3-16.7-3.5-1.8-8.5-2.4-15.1-2.4h-14.9s0,38.2,0,38.2ZM125,125.8h-.3s-7.5-22.5-7.5-22.5h-15.2s14,38.2,14,38.2h16.8s13.6-38.2,13.6-38.2h-14.6s-6.8,22.4-6.8,22.4ZM418.4,141.7h27.3s0-10.9,0-10.9h-13.4s0-3.7,0-3.7h12.7s0-9.7,0-9.7h-12.7s0-3.8,0-3.8h13.2s0-10.1,0-10.1h-27.1s0,38.2,0,38.2ZM336.2,141.6h27.3s0-10.9,0-10.9h-13.4s0-3.7,0-3.7h12.7s0-9.7,0-9.7h-12.7s0-3.8,0-3.8h13.2s0-10.1,0-10.1h-27.1s0,38.2,0,38.2ZM372.1,141.6h13.8s0-16,0-16l9.2,16h18s-13.8-20.1-13.8-20.1l12.7-18.1h-17.4s-8.7,16.3-8.7,16.3v-16.3s-13.8,0-13.8,0v38.2ZM300.5,141.6h27.3s0-10.9,0-10.9h-13.4s0-3.7,0-3.7h12.7s0-9.7,0-9.7h-12.7s0-3.8,0-3.8h13.2s0-10.1,0-10.1h-27.1s0,38.2,0,38.2ZM272.7,112.8h2.1c2.6,0,3.9,1.4,3.9,3.7,0,2.3-1.4,3.6-3.9,3.6h-2.1v-7.2ZM258.8,141.6h14s0-12.6,0-12.6l6.7,12.6h17.2s-10.2-15.6-10.2-15.6c4.4-.5,7.4-4.3,7.4-9.8,0-8.2-5.2-12.9-15.4-12.9h-19.6s0,38.2,0,38.2ZM212.7,141.6h13.8s0-16,0-16l9.2,16h18s-13.8-20.1-13.8-20.1l12.7-18.1h-17.4s-8.7,16.3-8.7,16.3v-16.3s-13.8,0-13.8,0v38.2Z"/>
  <g>
    <path class="st2" d="M406.1,191.6l-6.2-16.1h2.3l4.2,11.7c.3.9.6,1.8.8,2.6.2-.9.5-1.8.9-2.6l4.3-11.7h2.2l-6.3,16.1h-2.2Z"/>
    <path class="st2" d="M416.6,191.6v-16.1h11.6v1.9h-9.5v4.9h8.9v1.9h-8.9v5.5h9.9v1.9h-12Z"/>
    <path class="st2" d="M431.5,191.6v-16.1h11.6v1.9h-9.5v4.9h8.9v1.9h-8.9v5.5h9.9v1.9h-12Z"/>
    <path class="st2" d="M446.4,191.6v-16.1h2.1v14.2h7.9v1.9h-10Z"/>
    <path class="st2" d="M457.7,191.6v-2l8.2-10.3c.6-.7,1.1-1.4,1.7-1.9h-9v-1.9h11.5v1.9l-9,11.1-1,1.1h10.3v1.9h-12.7Z"/>
    <path class="st2" d="M473,191.6v-16.1h2.1v16.1h-2.1Z"/>
    <path class="st2" d="M477.8,187.1l1.9-.3c0,1.2.3,2.1.7,2.5.4.5,1,.7,1.7.7s1-.1,1.4-.4c.4-.2.7-.6.8-1,.1-.4.2-1.1.2-2v-11.1h2.1v11c0,1.3-.2,2.4-.5,3.1s-.8,1.3-1.5,1.7c-.7.4-1.5.6-2.5.6-1.4,0-2.5-.4-3.2-1.2s-1.1-2-1.1-3.6Z"/>
    <path class="st2" d="M490.1,191.6v-16.1h5.5c1.2,0,2.2,0,2.9.2.9.2,1.7.6,2.4,1.2.8.7,1.5,1.6,1.9,2.7.4,1.1.6,2.4.6,3.8s-.1,2.3-.4,3.2c-.3.9-.7,1.7-1.1,2.3s-.9,1.1-1.5,1.5c-.5.4-1.2.6-1.9.8-.7.2-1.6.3-2.6.3h-5.8ZM492.3,189.7h3.4c1.1,0,1.9,0,2.5-.3.6-.2,1.1-.5,1.4-.8.5-.5.9-1.2,1.2-2,.3-.9.4-1.9.4-3.1s-.3-3-.8-3.9c-.6-.9-1.2-1.5-2-1.8-.6-.2-1.5-.3-2.8-.3h-3.4v12.3Z"/>
    <path class="st2" d="M506.7,191.6v-16.1h2.1v16.1h-2.1Z"/>
    <path class="st2" d="M520.1,185.3v-1.9h6.8s0,6,0,6c-1,.8-2.1,1.5-3.2,1.9-1.1.4-2.3.6-3.4.6s-3-.3-4.3-1c-1.3-.7-2.3-1.7-2.9-2.9-.7-1.3-1-2.7-1-4.3s.3-3,1-4.4,1.6-2.4,2.8-3c1.2-.7,2.6-1,4.2-1s2.2.2,3.2.6c.9.4,1.7.9,2.2,1.6.5.7.9,1.5,1.2,2.6l-1.9.5c-.2-.8-.5-1.5-.9-1.9s-.9-.8-1.5-1.1c-.7-.3-1.4-.4-2.2-.4s-1.8.1-2.5.4c-.7.3-1.3.7-1.7,1.2-.4.5-.8,1-1,1.6-.4,1-.6,2.1-.6,3.2s.2,2.6.7,3.6c.5,1,1.2,1.7,2.2,2.1.9.5,1.9.7,3,.7s1.8-.2,2.7-.5c.9-.4,1.5-.7,2-1.1v-3h-4.7Z"/>
    <path class="st2" d="M536.6,191.6v-16.1h2.1v16.1h-2.1Z"/>
    <path class="st2" d="M542.5,191.6v-16.1h2.2l8.4,12.6v-12.6h2v16.1h-2.2l-8.4-12.6v12.6h-2Z"/>
    <path class="st2" d="M564.9,191.6v-16.1h6c1.2,0,2.2.2,3,.5.7.3,1.3.8,1.7,1.5.4.7.6,1.4.6,2.1s-.2,1.3-.6,1.9-.9,1.1-1.7,1.5c1,.3,1.7.8,2.2,1.5.5.7.8,1.5.8,2.4s-.2,1.5-.5,2.1c-.3.6-.7,1.1-1.2,1.5s-1.1.6-1.8.8c-.7.2-1.6.3-2.6.3h-6.1ZM567,182.3h3.5c.9,0,1.6,0,2-.2.5-.2.9-.4,1.2-.8s.4-.8.4-1.4-.1-1-.4-1.4c-.3-.4-.6-.7-1.1-.8-.5-.1-1.3-.2-2.4-.2h-3.2v4.9ZM567,189.7h4c.7,0,1.2,0,1.4,0,.5,0,.9-.2,1.2-.4.3-.2.6-.5.8-.9.2-.4.3-.8.3-1.4s-.2-1.1-.5-1.6c-.3-.4-.7-.8-1.3-.9-.5-.2-1.3-.3-2.4-.3h-3.7v5.5Z"/>
    <path class="st2" d="M579.3,183.8c0-2.7.7-4.8,2.1-6.3,1.4-1.5,3.3-2.3,5.5-2.3s2.8.4,4,1.1c1.2.7,2.1,1.7,2.7,3,.6,1.3.9,2.7.9,4.3s-.3,3.1-1,4.4-1.6,2.3-2.8,2.9-2.5,1-3.9,1-2.9-.4-4.1-1.1c-1.2-.7-2.1-1.7-2.7-3-.6-1.3-.9-2.6-.9-4ZM581.5,183.8c0,1.9.5,3.5,1.6,4.6s2.3,1.7,3.9,1.7,2.9-.6,4-1.7,1.6-2.7,1.6-4.8-.2-2.5-.7-3.4c-.4-1-1.1-1.7-1.9-2.3s-1.8-.8-2.9-.8c-1.5,0-2.8.5-3.9,1.6s-1.6,2.8-1.6,5.2Z"/>
    <path class="st2" d="M608,175.6h2.1v9.3c0,1.6-.2,2.9-.5,3.8-.4,1-1,1.7-2,2.3-1,.6-2.2.9-3.8.9s-2.7-.3-3.7-.8-1.6-1.3-2.1-2.3c-.4-1-.6-2.3-.6-4v-9.3h2.1v9.3c0,1.4.1,2.4.4,3.1.3.7.7,1.2,1.3,1.5s1.4.5,2.3.5c1.6,0,2.7-.4,3.3-1.1.7-.7,1-2.1,1-4.1v-9.3Z"/>
    <path class="st2" d="M616.4,191.6l-4.3-16.1h2.2l2.4,10.5c.3,1.1.5,2.2.7,3.3.4-1.7.7-2.7.7-3l3.1-10.9h2.6l2.3,8.1c.6,2,1,3.9,1.2,5.7.2-1,.5-2.2.8-3.5l2.5-10.3h2.1l-4.4,16.1h-2.1l-3.4-12.2c-.3-1-.5-1.7-.5-1.9-.2.7-.3,1.4-.5,1.9l-3.4,12.2h-2.2Z"/>
  </g>
  <g>
    <path class="st2" d="M488.6,121.7h15.2v.3c0,6.3-1.9,11.5-5.5,15-3.8,3.7-8.4,4.7-12.6,4.7s-9.2-1.6-12.6-5c-3.6-3.7-5.5-8.6-5.5-14s2.3-10.7,5.4-13.8c3.2-3.2,8.2-5.5,13.9-5.5s6.8.7,9.6,2.3c3,1.7,4.9,3.9,6,5.5l-4.5,3.2c-1.1-1.6-2.8-3.2-4.5-4.2-2.1-1.2-4.3-1.6-6.5-1.6-4.8,0-7.9,2-9.8,3.8-2.4,2.4-3.9,6.4-3.9,10.4s1.4,7.4,3.8,10c2.5,2.7,5.7,3.7,9.3,3.7s5.9-.9,8.3-3.3c2.1-2,2.9-4.2,3.1-6.3h-9.2v-5.2Z"/>
    <path class="st2" d="M517.5,104c4.5,0,7.4.6,9.8,2.2,4,2.7,4.4,7.1,4.4,8.7,0,5.3-3.3,9.2-8.2,10.3l11.5,15.8h-6.8l-10.6-15.1h-1v15.1h-5.7v-37h6.6ZM516.6,120.9h1.8c1.6,0,7.9-.2,7.9-6s-4.9-5.7-7.7-5.7h-1.9v11.7Z"/>
    <path class="st2" d="M577.2,122.5c0,10.9-8.1,19.2-19.2,19.2s-19.2-8.3-19.2-19.2,8.1-19.2,19.2-19.2,19.2,8.3,19.2,19.2ZM571.6,122.5c0-8.2-5.7-14-13.6-14s-13.6,5.8-13.6,14,5.7,14,13.6,14,13.6-5.8,13.6-14Z"/>
    <path class="st2" d="M604.7,109.3h-14.7v9.4h14.3v5.3h-14.3v11.6h14.7v5.3h-20.4v-37h20.4v5.3Z"/>
    <path class="st2" d="M620.2,104c2.3,0,5.4.2,8.1,2,3.1,2,4.6,5.6,4.6,9s-.6,5.5-3.6,8.1c-2.9,2.5-6.3,2.9-9,2.9h-2.5v15h-5.7v-37h8.1ZM617.7,120.7h2.5c4.9,0,7.2-2.4,7.2-5.8s-.8-5.7-7.3-5.7h-2.5v11.5Z"/>
  </g>
</svg>